<svg width="20" height="20" fill="none" xmlns="http://www.w3.org/2000/svg"><g clip-path="url(#clip0_205_190)"><path fill-rule="evenodd" clip-rule="evenodd" d="M2.356.638A2.181 2.181 0 015.62.842l2.244 2.883a2.18 2.18 0 01.393 1.867L7.573 8.33a.848.848 0 00.222.803l3.071 3.072a.848.848 0 00.805.222l2.737-.684a2.181 2.181 0 011.867.394l2.883 2.243a2.18 2.18 0 01.203 3.263l-1.292 1.293c-.925.925-2.308 1.331-3.596.877a23.29 23.29 0 01-8.763-5.525 23.292 23.292 0 01-5.525-8.76C-.267 4.24.14 2.855 1.064 1.93L2.356.638z" fill="#2F3E37"/></g><defs><clipPath id="clip0_205_190"><path fill="#fff" d="M0 0h20v20H0z"/></clipPath></defs></svg>